<svg width="20" height="20" viewBox="0 0 20 20" fill="none" xmlns="http://www.w3.org/2000/svg">
<path d="M19.9812 6.72375L18.85 2.19625C18.7112 1.64 18.2112 1.25 17.6375 1.25H2.36375C1.79 1.25 1.29 1.64 1.15 2.19625L0.01875 6.72375C0.00625 6.7725 0 6.82375 0 6.875C0 8.5975 1.33125 10 2.96875 10C3.92 10 4.76875 9.52625 5.3125 8.79125C5.85625 9.52625 6.705 10 7.65625 10C8.6075 10 9.45625 9.52625 10 8.79125C10.5438 9.52625 11.3912 10 12.3438 10C13.2963 10 14.1437 9.52625 14.6875 8.79125C15.2313 9.52625 16.0787 10 17.0312 10C18.6687 10 20 8.5975 20 6.875C20 6.82375 19.9937 6.7725 19.9812 6.72375Z" fill="#808080"/>
<path d="M17.0312 11.2501C16.18 11.2501 15.3712 10.9901 14.6875 10.5151C13.32 11.4664 11.3675 11.4664 10 10.5151C8.6325 11.4664 6.68 11.4664 5.3125 10.5151C4.62875 10.9901 3.82 11.2501 2.96875 11.2501C2.355 11.2501 1.77625 11.1064 1.25 10.8614V17.5001C1.25 18.1901 1.81 18.7501 2.5 18.7501H7.5V13.7501H12.5V18.7501H17.5C18.19 18.7501 18.75 18.1901 18.75 17.5001V10.8614C18.2237 11.1064 17.645 11.2501 17.0312 11.2501Z" fill="#808080"/>
</svg>
